#!OML:ASF H:\GeneralSubjects\Female5\Project 1\Capture day 1\Session 1\Female5.ASF
:FULLY-SPECIFIED
:DEGREES
588
root -36.5498 15.7586 1.30464 -164.944 -282.353 -179.193
lowerback 14.0161 2.90118 5.82219
upperback -11.0058 5.05865 -4.15184
thorax -19.5766 1.1416 -9.68358
lowerneck -13.8867 4.42082 10.8292
upperneck 36.5205 6.49748 -2.74385
head 15.6981 4.54931 -1.75119
rclavicle 1.04486e-013 0
rhumerus -55.3029 1.75016 -80.9453
rradius 30.6426
rwrist -7.12143
rhand -26.5837 -22.0966
rfingers 7.12502
rthumb -0.0180488 -52.0763
lclavicle 1.04486e-013 0
lhumerus -40.7037 -25.805 82.2003
lradius 51.1934
lwrist 2.96714
lhand -28.5206 31.7576
lfingers 7.12502
lthumb -1.88873 61.729
rfemur -28.1705 2.82614 30.6591
rtibia 15.7349
rfoot -13.2856 -13.2113
rtoes -33.3619
lfemur -0.570805 -16.2033 -33.2652
ltibia 11.8375
lfoot -30.115 -12.5555
ltoes -29.1924
589
root -36.7468 15.7559 1.33624 -165.957 -282.399 -179.807
lowerback 14.1515 2.90223 5.51643
upperback -10.6598 4.98546 -4.10922
thorax -19.7719 1.11188 -9.61107
lowerneck -13.7392 4.46683 11.2101
upperneck 36.6175 6.36802 -2.39594
head 15.7097 4.60678 -1.69074
rclavicle -2.75814e-015 -2.70347e-014
rhumerus -55.1608 0.967673 -80.3815
rradius 30.636
rwrist -7.51196
rhand -26.7964 -22.532
rfingers 7.12502
rthumb -0.223424 -52.5116
lclavicle -2.75814e-015 -2.70347e-014
lhumerus -40.2476 -26.461 82.6573
lradius 49.4667
lwrist 2.133
lhand -28.0957 31.9982
lfingers 7.12502
lthumb -1.47839 61.9728
rfemur -28.2875 3.21462 30.2983
rtibia 15.2897
rfoot -12.971 -14.1894
rtoes -35.0971
lfemur -0.796835 -16.4206 -33.4683
ltibia 11.721
lfoot -30.3059 -12.3897
ltoes -28.7514
590
root -36.9384 15.7611 1.36698 -166.432 -282.438 -179.857
lowerback 14.2389 2.9236 5.31297
upperback -10.5463 4.95676 -4.11454
thorax -19.6969 1.13213 -9.48881
lowerneck -13.5416 4.51883 11.606
upperneck 36.7184 6.24656 -2.01284
head 15.713 4.67763 -1.61639
rclavicle -3.8763e-015 3.18055e-015
rhumerus -55.0418 0.38946 -80.1089
rradius 30.7589
rwrist -8.12863
rhand -26.5398 -23.1906
rfingers 7.12502
rthumb 0.0243522 -53.1703
lclavicle -3.8763e-015 3.18055e-015
lhumerus -39.8655 -27.0965 83.1637
lradius 47.5966
lwrist 1.1078
lhand -27.4826 32.0936
lfingers 7.12502
lthumb -0.886213 62.0715
rfemur -28.1936 3.75771 30.0424
rtibia 14.5578
rfoot -12.5817 -15.2417
rtoes -36.7911
lfemur -1.23213 -16.3063 -33.4061
ltibia 11.8979
lfoot -30.1269 -12.1612
ltoes -28.5453
591
root -37.1245 15.7728 1.39664 -166.493 -282.439 -179.483
lowerback 14.3257 2.95658 5.22424
upperback -10.4333 4.97296 -4.10602
thorax -19.6068 1.15839 -9.42737
lowerneck -13.3467 4.59434 11.9763
upperneck 36.8045 6.1508 -1.57701
head 15.7102 4.76224 -1.50977
rclavicle 1.02722e-013 -1.98785e-014
rhumerus -54.9365 0.0598219 -80.1576
rradius 31.0145
rwrist -8.93716
rhand -26.4981 -23.34
rfingers 7.12502
rthumb 0.0646168 -53.3197
lclavicle 1.02722e-013 -1.98785e-014
lhumerus -39.5783 -27.653 83.6653
lradius 45.7056
lwrist 0.00595845
lhand -26.7934 32.1175
lfingers 7.12502
lthumb -0.220553 62.0971
rfemur -27.9471 4.42743 29.8688
rtibia 13.6277
rfoot -12.186 -16.3097
rtoes -38.5299
lfemur -1.80665 -15.9841 -33.1785
ltibia 12.2731
lfoot -29.7765 -11.9029
ltoes -28.5013
592
root -37.3051 15.7892 1.42536 -166.221 -282.391 -178.775
lowerback 14.4256 2.99984 5.22292
upperback -10.3273 5.02679 -4.08525
thorax -19.5229 1.18947 -9.41378
lowerneck -13.1668 4.69337 12.3091
upperneck 36.8675 6.08588 -1.10545
head 15.7006 4.85755 -1.37548
rclavicle 9.44227e-016 3.4191e-014
rhumerus -54.8456 -0.0315244 -80.4808
rradius 31.39
rwrist -9.75885
rhand -26.6064 -22.9625
rfingers 7.12502
rthumb -0.0399802 -52.9423
lclavicle 9.44227e-016 3.4191e-014
lhumerus -39.4283 -28.0868 84.1296
lradius 43.9121
lwrist -1.0657
lhand -26.0331 32.2211
lfingers 7.12502
lthumb 0.513777 62.2002
rfemur -27.597 5.19511 29.7668
rtibia 12.589
rfoot -11.8892 -17.3673
rtoes -40.3626
lfemur -2.41541 -15.6452 -32.8678
ltibia 12.719
lfoot -29.4739 -11.6023
ltoes -28.5923
593
root -37.4801 15.8077 1.45322 -165.711 -282.291 -177.842
lowerback 14.5464 3.05078 5.27868
upperback -10.2339 5.10769 -4.05815
thorax -19.4615 1.22307 -9.43684
lowerneck -13.0265 4.81468 12.5938
upperneck 36.9098 6.05222 -0.612824
head 15.6907 4.95938 -1.21766
rclavicle 1.90336e-014 2.22639e-014
rhumerus -54.7716 0.111827 -81.0439
rradius 31.872
rwrist -10.5306
rhand -26.802 -22.1807
rfingers 7.12502
rthumb -0.228881 -52.1603
lclavicle 1.90336e-014 2.22639e-014
lhumerus -39.4426 -28.3636 84.5159
lradius 42.3226
lwrist -2.01602
lhand -25.3015 32.1505
lfingers 7.12502
lthumb 1.22039 62.1267
rfemur -27.2096 5.99495 29.7257
rtibia 11.5498
rfoot -11.7812 -18.369
rtoes -42.2596
lfemur -2.97632 -15.3777 -32.5442
ltibia 13.1312
lfoot -29.3112 -11.274
ltoes -28.7907
594
root -37.6491 15.8261 1.48019 -165.134 -282.137 -176.877
lowerback 14.6714 3.11064 5.34012
upperback -10.1608 5.20443 -4.03331
thorax -19.4263 1.26058 -9.47361
lowerneck -12.9266 4.94626 12.8329
upperneck 36.9272 6.0418 -0.136024
head 15.6785 5.05922 -1.05444
rclavicle -5.01434e-014 -2.06736e-014
rhumerus -54.7189 0.460722 -81.7809
rradius 32.4529
rwrist -11.1654
rhand -27.1149 -21.1426
rfingers 7.12502
rthumb -0.53103 -51.1217
lclavicle -5.01434e-014 -2.06736e-014
lhumerus -39.6299 -28.4515 84.798
lradius 41.0029
lwrist -2.78236
lhand -24.644 31.996
lfingers 7.12502
lthumb 1.8554 61.9677
rfemur -26.8595 6.70508 29.7235
rtibia 10.6088
rfoot -11.8632 -19.2159
rtoes -44.0644
lfemur -3.44931 -15.2255 -32.273
ltibia 13.4499
lfoot -29.3131 -10.9321
ltoes -29.0328
595
root -37.8118 15.8425 1.50655 -164.657 -281.934 -176.074
lowerback 14.8108 3.21217 5.46833
upperback -10.1444 5.36798 -4.10677
thorax -19.4488 1.3037 -9.69646
lowerneck -12.8362 5.01869 13.0757
upperneck 36.9254 5.93911 0.344928
head 15.6521 5.12217 -0.906766
rclavicle 4.34344e-014 -3.18055e-015
rhumerus -54.7798 0.741771 -82.6151
rradius 33.1299
rwrist -11.5395
rhand -27.28 -20.2669
rfingers 7.12502
rthumb -0.690503 -50.2455
lclavicle 4.34344e-014 -3.18055e-015
lhumerus -40.0371 -28.5792 84.9649
lradius 39.9976
lwrist -3.28346
lhand -24.0464 31.6123
lfingers 7.12502
lthumb 2.43251 61.5782
rfemur -26.61 7.2 29.7408
rtibia 9.8486
rfoot -12.0871 -19.8355
rtoes -45.6097
lfemur -3.84082 -15.1934 -32.0923
ltibia 13.6395
lfoot -29.4457 -10.553
ltoes -29.2747
596
root -37.9678 15.856 1.5326 -164.444 -281.687 -175.611
lowerback 14.9016 3.3235 5.49817
upperback -10.1614 5.52268 -4.187
thorax -19.4905 1.35491 -9.86782
lowerneck -12.7524 5.08576 13.2947
upperneck 36.8939 5.86444 0.730869
head 15.6166 5.17783 -0.792029
rclavicle -8.84592e-015 -5.56597e-014
rhumerus -54.8509 1.13782 -83.4663
rradius 33.8338
rwrist -11.7037
rhand -27.2366 -19.6916
rfingers 7.12502
rthumb -0.648602 -49.6704
lclavicle -8.84592e-015 -5.56597e-014
lhumerus -40.6087 -28.4942 85.0195
lradius 39.2782
lwrist -3.52148
lhand -23.5433 31.0857
lfingers 7.12502
lthumb 2.91846 61.0454
rfemur -26.5077 7.38844 29.7565
rtibia 9.3583
rfoot -12.3596 -20.1983
rtoes -46.7824
lfemur -4.17368 -15.2573 -32.0253
ltibia 13.6933
lfoot -29.6546 -10.1176
ltoes -29.48
597
root -38.1164 15.867 1.55881 -164.584 -281.397 -175.583
lowerback 14.8841 3.44648 5.37683
upperback -10.427 5.64159 -4.35585
thorax -19.2878 1.45699 -9.83675
lowerneck -12.6783 5.15585 13.4921
upperneck 36.8181 5.83068 1.00576
head 15.5665 5.22765 -0.715904
rclavicle -6.58474e-014 2.94201e-014
rhumerus -54.8948 1.59597 -84.2603
rradius 34.5147
rwrist -11.6178
rhand -26.9935 -19.5448
rfingers 7.12502
rthumb -0.41385 -49.5241
lclavicle -6.58474e-014 2.94201e-014
lhumerus -41.2927 -28.1958 84.9524
lradius 38.7867
lwrist -3.47276
lhand -23.1447 30.7033
lfingers 7.12502
lthumb 3.3034 60.6575
rfemur -26.5872 7.21137 29.7667
rtibia 9.24588
rfoot -12.576 -20.294
rtoes -47.5057
lfemur -4.46013 -15.3698 -32.0623
ltibia 13.5848
lfoot -29.883 -9.61591
ltoes -29.6431
598
root -38.258 15.877 1.58645 -164.982 -281.08 -175.886
lowerback 14.8657 3.58139 5.20592
upperback -10.5062 5.77941 -4.46128
thorax -19.3557 1.52705 -9.90902
lowerneck -12.5817 5.20539 13.6919
upperneck 36.7 5.79848 1.18834
head 15.4928 5.26288 -0.682141
rclavicle -2.05245e-014 -4.85035e-014
rhumerus -54.9329 1.99586 -84.9521
rradius 35.1397
rwrist -11.3283
rhand -26.5012 -19.7183
rfingers 7.12502
rthumb 0.0616778 -49.698
lclavicle -2.05245e-014 -4.85035e-014
lhumerus -42.0681 -27.803 84.7802
lradius 38.4426
lwrist -3.1357
lhand -22.8837 30.3611
lfingers 7.12502
lthumb 3.55543 60.3112
rfemur -26.8601 6.65901 29.8043
rtibia 9.61469
rfoot -12.694 -20.1591
rtoes -47.7929
lfemur -4.71691 -15.4884 -32.1412
ltibia 13.306
lfoot -30.0929 -9.05415
ltoes -29.8186
599
root -38.393 15.8873 1.6168 -165.487 -280.759 -176.345
lowerback 14.8258 3.70641 4.97143
upperback -10.5986 5.89216 -4.54485
thorax -19.4409 1.59579 -9.91229
lowerneck -12.4955 5.27462 13.8414
upperneck 36.5372 5.82234 1.30719
head 15.4025 5.30051 -0.659571
rclavicle 6.67916e-014 -7.07673e-014
rhumerus -54.9032 2.40097 -85.5432
rradius 35.6542
rwrist -11.0057
rhand -26.1904 -19.8723
rfingers 7.12502
rthumb 0.361808 -49.8517
lclavicle 6.67916e-014 -7.07673e-014
lhumerus -42.8602 -27.2561 84.4925
lradius 38.1436
lwrist -2.56995
lhand -22.8165 30.1284
lfingers 7.12502
lthumb 3.62029 60.0774
rfemur -27.2864 5.79927 29.8937
rtibia 10.5181
rfoot -12.7126 -19.8488
rtoes -47.7331
lfemur -4.95832 -15.5959 -32.1976
ltibia 12.897
lfoot -30.2757 -8.45752
ltoes -30.0082
600
root -38.5213 15.899 1.65035 -165.933 -280.459 -176.762
lowerback 14.7931 3.80909 4.71883
upperback -10.6896 5.97496 -4.59207
thorax -19.5415 1.65581 -9.85558
lowerneck -12.4286 5.38267 13.9306
upperneck 36.326 5.92241 1.38544
head 15.2967 5.35007 -0.633017
rclavicle 1.45113e-014 1.66979e-014
rhumerus -54.7804 2.79156 -86.017
rradius 36.0333
rwrist -10.6841
rhand -26.2343 -19.9468
rfingers 7.12502
rthumb 0.319415 -49.9263
lclavicle 1.45113e-014 1.66979e-014
lhumerus -43.6132 -26.5682 84.0913
lradius 37.7958
lwrist -1.87011
lhand -22.8545 30.2319
lfingers 7.12502
lthumb 3.58359 60.1815
rfemur -27.7862 4.76928 30.0302
rtibia 11.9478
rfoot -12.6882 -19.4403
rtoes -47.4214
lfemur -5.18761 -15.6947 -32.182
ltibia 12.4217
lfoot -30.4401 -7.84898
ltoes -30.2183
601
root -38.6431 15.9124 1.68665 -166.195 -280.201 -176.979
lowerback 14.789 3.89117 4.50985
upperback -10.7724 6.04291 -4.6167
thorax -19.6515 1.70408 -9.79589
lowerneck -12.3824 5.52947 13.9927
upperneck 36.0784 6.08589 1.44062
head 15.1826 5.41498 -0.601903
rclavicle -1.81888e-014 -5.00937e-014
rhumerus -54.5828 3.11478 -86.3854
rradius 36.2955
rwrist -10.4314
rhand -26.6344 -19.9355
rfingers 7.12502
rthumb -0.0669406 -49.9152
lclavicle -1.81888e-014 -5.00937e-014
lhumerus -44.2975 -25.8223 83.5905
lradius 37.3382
lwrist -1.12938
lhand -23.0409 30.4232
lfingers 7.12502
lthumb 3.40361 60.3757
rfemur -28.264 3.71795 30.1813
rtibia 13.83
rfoot -12.7089 -19.0256
rtoes -46.9505
lfemur -5.40189 -15.7771 -32.0809
ltibia 11.9586
lfoot -30.5824 -7.26095
ltoes -30.4853
602
root -38.7576 15.9273 1.72442 -166.334 -279.997 -177.044
lowerback 14.8008 3.95707 4.35816
upperback -10.837 6.10243 -4.62956
thorax -19.7459 1.74275 -9.75225
lowerneck -12.3467 5.70924 14.0555
upperneck 35.7992 6.30185 1.46836
head 15.0616 5.49509 -0.574407
rclavicle -1.80894e-014 2.8625e-014
rhumerus -54.3334 3.35787 -86.6607
rradius 36.483
rwrist -10.3093
rhand -27.3024 -19.8373
rfingers 7.12502
rthumb -0.712196 -49.8158
lclavicle -1.80894e-014 2.8625e-014
lhumerus -44.8848 -25.0557 83.0071
lradius 36.7361
lwrist -0.449139
lhand -23.3362 30.6538
lfingers 7.12502
lthumb 3.11838 60.6107
rfemur -28.6276 2.73692 30.2801
rtibia 16.0309
rfoot -12.8119 -18.6322
rtoes -46.3679
lfemur -5.59266 -15.8693 -31.9308
ltibia 11.5571
lfoot -30.7194 -6.69937
ltoes -30.8067
